#!OML:ASF H:\GeneralSubjects\Female5\Project 1\Capture day 1\Session 1\Female5.ASF
:FULLY-SPECIFIED
:DEGREES
41
root -14.3034 16.168 3.06714 -170.438 -3.44969 -176.549
lowerback 6.50055 2.97337 2.26671
upperback -10.0197 3.71113 0.605043
thorax -14.5731 1.23399 -1.20999
lowerneck -17.8133 1.74264 1.82027
upperneck 35.4146 0.0360677 -1.6854
head 15.4379 -0.923932 -1.28993
rclavicle -1.27595e-014 -3.72721e-016
rhumerus -51.3855 20.0341 -90.0123
rradius 31.1982
rwrist 1.20862
rhand -24.2361 -18.7691
rfingers 7.12502
rthumb 2.24933 -48.7369
lclavicle -1.27595e-014 -3.72721e-016
lhumerus -48.7463 0.263097 76.7328
lradius 33.4078
lwrist -3.68301
lhand -26.3365 33.1337
lfingers 7.12502
lthumb 0.220753 63.1134
rfemur 3.95956 36.0288 36.6856
rtibia -7.70263
rfoot -41.1919 -35.8639
rtoes 18.3908
lfemur -2.93864 -30.6515 -25.1833
ltibia 0.902965
lfoot -29.0003 4.51208
ltoes -37.7072
42
root -14.2882 16.1687 3.05452 -170.543 -3.40924 -176.642
lowerback 6.54807 3.02806 2.01277
upperback -9.98562 3.75743 0.566499
thorax -14.5751 1.28511 -1.12325
lowerneck -17.8808 1.70942 1.58077
upperneck 35.5193 -0.0945303 -1.28321
head 15.501 -0.956776 -1.10429
rclavicle 7.4917e-015 1.2424e-014
rhumerus -51.4238 19.8546 -90.01
rradius 31.2573
rwrist 1.26606
rhand -24.3993 -18.9769
rfingers 7.12502
rthumb 2.09173 -48.9464
lclavicle 7.4917e-015 1.2424e-014
lhumerus -48.7403 0.175388 76.4327
lradius 33.184
lwrist -3.6738
lhand -26.6249 33.3548
lfingers 7.12502
lthumb -0.0578024 63.3346
rfemur 3.77343 36.0524 36.5933
rtibia -7.26867
rfoot -40.5917 -36.5289
rtoes 16.5646
lfemur -2.88428 -30.0003 -25.2192
ltibia 0.972786
lfoot -28.5999 3.99244
ltoes -35.428
43
root -14.2641 16.1736 3.03664 -170.669 -3.346 -176.706
lowerback 6.58415 3.11593 1.66249
upperback -9.96009 3.83582 0.542345
thorax -14.5881 1.36199 -0.972728
lowerneck -17.6793 1.61525 1.34294
upperneck 35.3522 -0.268438 -0.921516
head 15.3688 -1.00461 -0.933708
rclavicle 3.84276e-014 2.25124e-014
rhumerus -51.5422 19.5727 -89.9539
rradius 31.3624
rwrist 1.33719
rhand -24.4497 -18.8597
rfingers 7.12502
rthumb 2.04307 -48.8296
lclavicle 3.84276e-014 2.25124e-014
lhumerus -48.8241 0.00797628 76.1689
lradius 33.0077
lwrist -3.91701
lhand -26.6584 33.3784
lfingers 7.12502
lthumb -0.0901229 63.3581
rfemur 3.81444 36.1094 36.708
rtibia -6.8265
rfoot -40.7873 -36.4295
rtoes 16.4409
lfemur -2.76359 -29.417 -25.1555
ltibia 0.760744
lfoot -28.192 3.55363
ltoes -25.4376
44
root -14.2783 16.1698 3.0371 -170.529 -3.57231 -176.669
lowerback 6.5549 3.11549 2.06806
upperback -10.035 3.86479 0.404239
thorax -14.6193 1.3159 -1.35456
lowerneck -17.5607 1.5219 1.41076
upperneck 35.1849 -0.402436 -0.931153
head 15.2586 -1.04468 -0.967182
rclavicle 1.49089e-015 9.93923e-016
rhumerus -51.6321 19.2875 -89.8389
rradius 31.3958
rwrist 1.39285
rhand -24.4969 -18.2124
rfingers 7.12502
rthumb 1.99744 -48.1828
lclavicle 1.49089e-015 9.93923e-016
lhumerus -48.9183 -0.0369432 75.8316
lradius 32.8985
lwrist -4.32513
lhand -26.4398 33.4189
lfingers 7.12502
lthumb 0.120989 63.3986
rfemur 3.03697 35.917 36.2951
rtibia -6.15473
rfoot -40.7888 -36.4505
rtoes 15.9315
lfemur -3.4993 -28.9118 -24.9973
ltibia 1.55212
lfoot -27.5747 3.19906
ltoes -25.5947
45
root -14.2528 16.1749 3.0207 -170.621 -3.55306 -176.566
lowerback 6.59075 3.16979 1.88411
upperback -9.99385 3.92872 0.454323
thorax -14.6078 1.37379 -1.21103
lowerneck -17.5288 1.4241 1.43328
upperneck 35.0156 -0.507715 -0.970372
head 15.1681 -1.07996 -0.999574
rclavicle -1.3418e-014 -1.88845e-014
rhumerus -51.7353 19.132 -89.7196
rradius 31.4951
rwrist 1.37224
rhand -24.5168 -17.6853
rfingers 7.12502
rthumb 1.97824 -47.6559
lclavicle -1.3418e-014 -1.88845e-014
lhumerus -48.9869 -0.00911115 75.527
lradius 32.8685
lwrist -4.39329
lhand -26.0618 33.337
lfingers 7.12502
lthumb 0.486015 63.3162
rfemur 2.99149 35.9876 36.6259
rtibia -5.65723
rfoot -41.1106 -36.152
rtoes 16.1796
lfemur -3.55566 -28.2701 -24.7475
ltibia 1.87606
lfoot -27.23 2.72692
ltoes -25.525
46
root -14.2675 16.1716 3.02034 -170.557 -3.8502 -176.6
lowerback 6.67895 3.09584 2.17183
upperback -10.0376 3.86014 0.391307
thorax -14.6941 1.30143 -1.43271
lowerneck -17.4727 1.36748 1.31201
upperneck 34.9238 -0.571235 -0.874256
head 15.1105 -1.10493 -0.945644
rclavicle -1.93815e-014 1.09332e-015
rhumerus -51.9617 19.1955 -89.7244
rradius 31.7048
rwrist 1.21233
rhand -24.4959 -17.5919
rfingers 7.12502
rthumb 1.99846 -47.5623
lclavicle -1.93815e-014 1.09332e-015
lhumerus -49.1731 0.055189 75.2459
lradius 32.9362
lwrist -4.41133
lhand -25.7942 33.1052
lfingers 7.12502
lthumb 0.744466 63.0837
rfemur 2.49988 35.6819 36.2345
rtibia -5.40049
rfoot -40.6812 -36.4332
rtoes 14.8732
lfemur -4.22607 -28.1613 -24.7572
ltibia 2.79225
lfoot -27.0166 2.37889
ltoes -26.6004
47
root -14.2714 16.1687 3.01601 -170.603 -4.07395 -176.58
lowerback 6.85132 3.02528 2.29755
upperback -10.0645 3.78883 0.393338
thorax -14.8319 1.25052 -1.49654
lowerneck -17.3347 1.34738 1.37015
upperneck 34.8601 -0.584118 -0.974843
head 15.0475 -1.1184 -0.998029
rclavicle -1.57785e-015 8.15017e-015
rhumerus -52.2742 19.3859 -89.8308
rradius 31.947
rwrist 1.07283
rhand -24.5049 -17.7365
rfingers 7.12502
rthumb 1.98977 -47.7069
lclavicle -1.57785e-015 8.15017e-015
lhumerus -49.4371 0.380848 74.8044
lradius 33.0297
lwrist -4.75836
lhand -25.7208 33.0817
lfingers 7.12502
lthumb 0.815413 63.0599
rfemur 2.39416 34.9429 36.1382
rtibia -5.33899
rfoot -40.3096 -35.9369
rtoes 15.0158
lfemur -4.6614 -27.827 -24.7215
ltibia 3.5333
lfoot -26.6814 2.06022
ltoes -27.4331
48
root -14.2661 16.1661 3.00855 -170.682 -4.27899 -176.426
lowerback 7.01123 2.99001 2.47748
upperback -10.0443 3.78259 0.418187
thorax -14.9006 1.23077 -1.57623
lowerneck -17.189 1.30078 1.42936
upperneck 34.6964 -0.613734 -1.07608
head 14.9354 -1.13104 -1.04933
rclavicle -5.10628e-015 3.08116e-015
rhumerus -52.5549 19.516 -89.895
rradius 32.2372
rwrist 0.950555
rhand -24.5243 -17.6787
rfingers 7.12502
rthumb 1.97096 -47.6494
lclavicle -5.10628e-015 3.08116e-015
lhumerus -49.5205 0.675616 74.3959
lradius 32.9899
lwrist -5.08013
lhand -25.7053 33.089
lfingers 7.12502
lthumb 0.830376 63.0671
rfemur 2.32077 34.2396 36.2723
rtibia -5.20383
rfoot -39.8481 -35.5449
rtoes 15.0102
lfemur -5.01273 -27.3182 -24.474
ltibia 4.11254
lfoot -26.1436 1.66947
ltoes -27.1301
49
root -14.2606 16.1644 3.0003 -170.719 -4.4956 -176.314
lowerback 7.13647 2.9603 2.65425
upperback -9.9961 3.78356 0.422175
thorax -14.9113 1.21669 -1.6767
lowerneck -17.3448 1.26551 1.42938
upperneck 34.7264 -0.652893 -1.08534
head 14.9848 -1.143 -1.06072
rclavicle -2.54072e-014 -7.95139e-015
rhumerus -52.7398 19.6127 -89.917
rradius 32.5246
rwrist 0.815647
rhand -24.4966 -17.9819
rfingers 7.12502
rthumb 1.99774 -47.9523
lclavicle -2.54072e-014 -7.95139e-015
lhumerus -49.514 0.753198 74.1551
lradius 32.8934
lwrist -5.10993
lhand -25.9442 32.8247
lfingers 7.12502
lthumb 0.599675 62.8036
rfemur 2.06544 32.4241 36.1984
rtibia -5.34014
rfoot -37.54 -35.2849
rtoes 12.5723
lfemur -5.3957 -26.9132 -24.2563
ltibia 4.67437
lfoot -25.5911 1.30924
ltoes -26.2438
50
root -14.2534 16.1624 2.98982 -170.737 -4.64158 -176.398
lowerback 7.23986 2.91424 2.55478
upperback -9.95656 3.71914 0.418338
thorax -14.9389 1.20103 -1.61902
lowerneck -17.6403 1.24999 1.4183
upperneck 34.9421 -0.691794 -1.08854
head 15.1551 -1.16399 -1.07547
rclavicle 3.30728e-014 2.48481e-015
rhumerus -52.9331 19.7923 -89.952
rradius 32.7246
rwrist 0.794757
rhand -24.4361 -18.7559
rfingers 7.12502
rthumb 2.05623 -48.7257
lclavicle 3.30728e-014 2.48481e-015
lhumerus -49.6354 0.860992 73.8975
lradius 32.9119
lwrist -4.92197
lhand -26.0097 32.4434
lfingers 7.12502
lthumb 0.536406 62.4224
rfemur 1.87681 31.0853 35.9926
rtibia -5.36883
rfoot -36.073 -34.9443
rtoes 10.8036
lfemur -5.67816 -26.7655 -24.314
ltibia 5.18441
lfoot -25.3112 0.91002
ltoes -25.3537
51
root -14.2402 16.1605 2.97639 -170.75 -4.74674 -176.585
lowerback 7.36394 2.91753 2.31825
upperback -9.94027 3.69615 0.367147
thorax -15.0116 1.21466 -1.5473
lowerneck -17.8011 1.18647 1.29653
upperneck 35.0643 -0.790568 -0.996696
head 15.2499 -1.21007 -1.03781
rclavicle -7.69794e-014 -1.31198e-014
rhumerus -53.1565 19.7792 -89.8768
rradius 32.7865
rwrist 0.981749
rhand -24.3283 -18.9282
rfingers 7.12502
rthumb 2.16027 -48.897
lclavicle -7.69794e-014 -1.31198e-014
lhumerus -49.781 0.800718 73.7139
lradius 33.0181
lwrist -4.56303
lhand -25.632 32.6293
lfingers 7.12502
lthumb 0.901187 62.6071
rfemur 1.72214 30.7499 35.808
rtibia -5.02475
rfoot -36.3097 -34.5321
rtoes 11.0671
lfemur -5.85119 -26.7902 -24.497
ltibia 5.5858
lfoot -25.1663 0.439252
ltoes -24.619
